<svg width="721" height="278" viewBox="0 0 721 278" fill="none" xmlns="http://www.w3.org/2000/svg">
<rect x="406" y="274" width="80" height="4" rx="2" fill="#EEEAD8"/>
<rect y="274" width="721" height="4" rx="2" fill="#EEEAD8"/>
<path d="M300 21C300 9.40202 309.402 0 321 0C332.598 0 342 9.40202 342 21V274H300V21Z" fill="black"/>
<path d="M254 51.6805C254 45.2295 259.23 40 265.68 40C272.131 40 277.361 45.2295 277.361 51.6805V103.723H254V51.6805Z" fill="black"/>
<path d="M277.361 103.723H254C254 128.729 274.271 149 299.277 149H301V125.523H299.161C287.121 125.523 277.361 115.763 277.361 103.723Z" fill="black"/>
<path d="M384 100.68C384 94.2295 378.77 89 372.32 89C365.869 89 360.639 94.2295 360.639 100.68V144.538H384V100.68Z" fill="black"/>
<path d="M360.639 144.538H384C384 166.332 366.332 184 344.538 184H337V163.538H341.639C352.132 163.538 360.639 155.032 360.639 144.538Z" fill="black"/>
<path d="M419 161C419 156.582 422.582 153 427 153C431.418 153 435 156.582 435 161V274H419V161Z" fill="black"/>
<path d="M402 218.225C402 215.892 403.892 214 406.225 214C408.558 214 410.45 215.892 410.45 218.225V233.877H402V218.225Z" fill="black"/>
<path d="M410.45 233.877H402C402 241.677 408.323 248 416.123 248H419V240.677H417.25C413.494 240.677 410.45 237.632 410.45 233.877Z" fill="black"/>
<path d="M452 176.225C452 173.892 450.108 172 447.775 172C445.442 172 443.55 173.892 443.55 176.225V196.554H452V176.225Z" fill="black"/>
<path d="M443.55 196.554H452V197C452 206.389 444.389 214 435 214V204.954H435.15C439.789 204.954 443.55 201.193 443.55 196.554Z" fill="black"/>
<path d="M262 196C262 191.582 265.582 188 270 188C274.418 188 278 191.582 278 196V274H262V196Z" fill="black"/>
<path d="M245 204.898C245 202.489 246.953 200.536 249.362 200.536C251.771 200.536 253.723 202.489 253.723 204.898V220.507H245V204.898Z" fill="black"/>
<path d="M253.723 220.507H245C245 228.344 251.353 234.697 259.19 234.697H262.55V227.339H260.555C256.782 227.339 253.723 224.28 253.723 220.507Z" fill="black"/>
</svg>
