<svg width="510" height="377" viewBox="0 0 510 377" fill="none" xmlns="http://www.w3.org/2000/svg">
<path d="M235.668 17.8556C312.111 -37.5047 444.532 40.1171 463.722 191.91C466.864 217.213 442.31 266.793 441.907 310.712C443.522 345.522 343.534 440.645 112.047 310.712C6.36467 254.722 36.499 169.85 96.2909 117.026C108.814 105.893 211.226 42.5452 235.668 17.8556Z" fill="#FCF9F4"/>
<rect x="42" y="158" width="41" height="4" rx="2" fill="#EEEAD8"/>
<rect x="401" y="43" width="41" height="4" rx="2" fill="#EEEAD8"/>
<rect y="135" width="41" height="4" rx="2" fill="#EEEAD8"/>
<rect x="38" y="271" width="41" height="4" rx="2" fill="#EEEAD8"/>
<rect x="26" y="165" width="41" height="4" rx="2" fill="#EEEAD8"/>
<rect x="62" y="278" width="41" height="4" rx="2" fill="#EEEAD8"/>
<rect x="373" y="51" width="57" height="4" rx="2" fill="#EEEAD8"/>
<rect x="433" y="239" width="61" height="4" rx="2" fill="#EEEAD8"/>
<rect x="456" y="249" width="47" height="4" rx="2" fill="#EEEAD8"/>
<rect x="414" y="249" width="33" height="4" rx="2" fill="#EEEAD8"/>
<rect x="501" y="239" width="9" height="4" rx="2" fill="#EEEAD8"/>
<rect x="313" y="337" width="80" height="4" rx="2" fill="#EEEAD8"/>
<rect x="145" y="337" width="160" height="4" rx="2" fill="#EEEAD8"/>
<path d="M207 84C207 72.402 216.402 63 228 63C239.598 63 249 72.402 249 84V337H207V84Z" fill="black"/>
<path d="M161 114.68C161 108.23 166.23 103 172.68 103C179.131 103 184.361 108.23 184.361 114.68V166.723H161V114.68Z" fill="black"/>
<path d="M184.361 166.723H161C161 191.729 181.271 212 206.277 212H208V188.523H206.161C194.121 188.523 184.361 178.763 184.361 166.723Z" fill="black"/>
<path d="M291 163.68C291 157.23 285.77 152 279.32 152C272.869 152 267.639 157.23 267.639 163.68V207.538H291V163.68Z" fill="black"/>
<path d="M267.639 207.538H291C291 229.332 273.332 247 251.538 247H244V226.538H248.639C259.132 226.538 267.639 218.032 267.639 207.538Z" fill="black"/>
<path d="M326 224C326 219.582 329.582 216 334 216C338.418 216 342 219.582 342 224V337H326V224Z" fill="black"/>
<path d="M309 281.225C309 278.892 310.892 277 313.225 277C315.558 277 317.45 278.892 317.45 281.225V296.877H309V281.225Z" fill="black"/>
<path d="M317.45 296.877H309C309 304.677 315.323 311 323.123 311H326V303.677H324.25C320.494 303.677 317.45 300.632 317.45 296.877Z" fill="black"/>
<path d="M359 239.225C359 236.892 357.108 235 354.775 235C352.442 235 350.55 236.892 350.55 239.225V259.554H359V239.225Z" fill="black"/>
<path d="M350.55 259.554H359V260C359 269.389 351.389 277 342 277V267.954H342.15C346.789 267.954 350.55 264.193 350.55 259.554Z" fill="black"/>
<path d="M169 259C169 254.582 172.582 251 177 251C181.418 251 185 254.582 185 259V337H169V259Z" fill="black"/>
<path d="M152 267.898C152 265.489 153.953 263.536 156.362 263.536C158.771 263.536 160.723 265.489 160.723 267.898V283.507H152V267.898Z" fill="black"/>
<path d="M160.723 283.507H152C152 291.344 158.353 297.697 166.19 297.697H169.55V290.339H167.555C163.782 290.339 160.723 287.28 160.723 283.507Z" fill="black"/>
<circle cx="75" cy="95" r="8" stroke="#EEEAD8" stroke-width="4"/>
<circle cx="135" cy="294" r="8" stroke="#EEEAD8" stroke-width="4"/>
<circle cx="160.5" cy="31.5" r="11.5" stroke="#EEEAD8" stroke-width="4"/>
<circle cx="458.5" cy="116.5" r="6.5" stroke="#EEEAD8" stroke-width="4"/>
</svg>
