<svg width="324" height="271" viewBox="0 0 324 271" fill="none" xmlns="http://www.w3.org/2000/svg">
<rect x="11" y="40" width="302" height="221" rx="16" fill="#F4F4F4"/>
<path d="M142 270.5H71.5H25C11.7452 270.5 1 259.755 1 246.5V54.4497C1 41.1949 11.7452 30.4497 25 30.4497H299C312.255 30.4497 323 41.1949 323 54.4497V246.5C323 259.755 312.255 270.5 299 270.5H182" stroke="#D0C693"/>
<path d="M53 13.2668C66.1676 16.6806 77.1667 12.1002 82.5 12.7668L94.5 52.4497C86.6667 53.4497 54.4 53.4965 48 51.0965C41.6 48.6965 33.3333 49.4298 30 50.0965L48 30.7669C46 27.1669 34.8333 19.6002 30 16.7669C34 18.7668 39.5 9.76689 53 13.2668Z" fill="#C1B67A"/>
<path d="M94.5 52.4497L68 42.9497H94.5V52.4497Z" fill="#8C8151"/>
<path d="M271.5 13.2668C258.332 16.6806 247.333 12.1002 242 12.7668L230 52.4497C237.833 53.4497 270.1 53.4965 276.5 51.0965C282.9 48.6965 291.167 49.4298 294.5 50.0965L276.5 30.7669C278.5 27.1669 289.667 19.6002 294.5 16.7669C290.5 18.7668 285 9.76689 271.5 13.2668Z" fill="#C1B67A"/>
<path d="M230 52.4497L256.5 42.9497H230V52.4497Z" fill="#8C8151"/>
<path d="M67 4.54937C67 3.56515 67.6988 2.73297 68.6743 2.60214C76.8684 1.50317 114.444 -2.79172 166 2.84024C215.284 8.22398 246.115 4.53654 254.606 3.24107C255.851 3.05111 257 4.01232 257 5.27177V41.4498C257 42.5543 256.097 43.4493 254.992 43.454C220.689 43.599 196.901 47.3736 166 43.4498C135.046 39.5191 106.803 43.3136 69.0072 43.4462C67.9026 43.4501 67 42.5543 67 41.4498V4.54937Z" fill="#D0C693"/>
<path d="M78.5332 23.3297V22.2737H84.7092V23.2977L78.5332 23.3297ZM78.9652 27.5697C79.2639 27.559 79.4932 27.511 79.6532 27.4257C79.8132 27.3297 79.9252 27.1697 79.9892 26.9457C80.0532 26.711 80.0852 26.391 80.0852 25.9857V19.6017C80.0852 19.335 80.0905 19.079 80.1012 18.8337C80.1225 18.5884 80.1385 18.3964 80.1492 18.2577C79.9679 18.2684 79.7599 18.279 79.5252 18.2897C79.2905 18.2897 79.1039 18.295 78.9652 18.3057V17.2497L83.3172 17.2337C84.3412 17.2337 85.2425 17.3777 86.0212 17.6657C86.8105 17.943 87.4665 18.3377 87.9892 18.8497C88.5119 19.3617 88.9065 19.9537 89.1732 20.6257C89.4505 21.2977 89.5892 22.0177 89.5892 22.7857C89.5892 23.4577 89.4665 24.1297 89.2212 24.8017C88.9865 25.4737 88.6185 26.087 88.1172 26.6417C87.6265 27.1857 86.9865 27.623 86.1972 27.9537C85.4185 28.2844 84.4905 28.4497 83.4132 28.4497H78.9652V27.5697ZM82.1012 26.0657C82.1012 26.3537 82.0959 26.6204 82.0852 26.8657C82.0745 27.111 82.0585 27.303 82.0372 27.4417C82.2079 27.4417 82.3945 27.447 82.5972 27.4577C82.7999 27.4577 82.9972 27.463 83.1892 27.4737C83.3812 27.4737 83.5252 27.4737 83.6212 27.4737C84.2399 27.4737 84.7839 27.351 85.2532 27.1057C85.7225 26.8604 86.1119 26.5297 86.4212 26.1137C86.7412 25.6977 86.9812 25.223 87.1412 24.6897C87.3012 24.1457 87.3812 23.575 87.3812 22.9777C87.3812 21.9217 87.2159 21.0417 86.8852 20.3377C86.5652 19.623 86.1012 19.0844 85.4932 18.7217C84.8852 18.3484 84.1332 18.1564 83.2372 18.1457C82.9385 18.135 82.7039 18.1777 82.5332 18.2737C82.3625 18.3697 82.2452 18.5297 82.1812 18.7537C82.1279 18.9777 82.1012 19.2924 82.1012 19.6977V26.0657ZM89.8363 28.4497V27.5377C90.135 27.5377 90.375 27.4524 90.5563 27.2817C90.7376 27.111 90.887 26.887 91.0043 26.6097C91.1216 26.3217 91.2443 26.0017 91.3723 25.6497L94.5563 16.9617H95.4203L98.8923 25.8097C98.9563 25.991 99.0416 26.247 99.1483 26.5777C99.255 26.9084 99.3136 27.1964 99.3243 27.4417C99.5056 27.431 99.6816 27.4204 99.8523 27.4097C100.023 27.399 100.172 27.3937 100.3 27.3937V28.4497H96.2203V27.5697C96.551 27.5697 96.775 27.5004 96.8923 27.3617C97.0096 27.223 97.0576 27.0417 97.0363 26.8177C97.0256 26.5937 96.9723 26.3644 96.8763 26.1297L96.4763 25.0417L92.7643 25.1057L92.4123 26.1777C92.3483 26.359 92.2736 26.567 92.1883 26.8017C92.103 27.0257 92.0176 27.2284 91.9323 27.4097C92.1243 27.399 92.3323 27.3884 92.5563 27.3777C92.791 27.367 92.9776 27.3617 93.1163 27.3617V28.4497H89.8363ZM93.1163 24.0817H96.1243L95.2603 21.7297C95.1323 21.367 95.0096 21.0044 94.8923 20.6417C94.7856 20.2684 94.695 19.927 94.6203 19.6177H94.5883C94.5243 19.831 94.4443 20.1084 94.3483 20.4497C94.263 20.791 94.1403 21.1804 93.9803 21.6177L93.1163 24.0817ZM95.0043 15.7937C94.663 15.7937 94.3216 15.735 93.9803 15.6177C93.6496 15.4897 93.3456 15.2924 93.0683 15.0257C92.791 14.7484 92.567 14.391 92.3963 13.9537L92.9883 13.6657C93.191 13.8897 93.4576 14.0924 93.7883 14.2737C94.1296 14.455 94.535 14.5457 95.0043 14.5457C95.4736 14.5457 95.8736 14.455 96.2043 14.2737C96.535 14.0924 96.8016 13.8897 97.0043 13.6657L97.5963 13.9537C97.4256 14.391 97.2016 14.7484 96.9243 15.0257C96.647 15.2924 96.3376 15.4897 95.9963 15.6177C95.6656 15.735 95.335 15.7937 95.0043 15.7937ZM109.713 28.6417L104.161 21.4257C104.044 21.255 103.916 21.0844 103.777 20.9137C103.649 20.7324 103.521 20.551 103.393 20.3697H103.377L103.409 25.9537C103.409 26.2417 103.404 26.519 103.393 26.7857C103.393 27.0524 103.382 27.271 103.361 27.4417C103.542 27.431 103.75 27.4204 103.985 27.4097C104.22 27.399 104.406 27.3937 104.545 27.3937V28.4497H101.137V27.5697C101.414 27.559 101.628 27.5164 101.777 27.4417C101.937 27.3564 102.054 27.2177 102.129 27.0257C102.204 26.823 102.241 26.5564 102.241 26.2257L102.225 19.5697C102.225 19.3137 102.23 19.0684 102.241 18.8337C102.252 18.599 102.262 18.407 102.273 18.2577C102.102 18.2684 101.9 18.279 101.665 18.2897C101.43 18.2897 101.244 18.295 101.105 18.3057V17.2497H103.409L108.673 24.0497C108.897 24.3377 109.089 24.5937 109.249 24.8177C109.42 25.0417 109.569 25.2444 109.697 25.4257H109.713V19.6017C109.713 19.335 109.718 19.079 109.729 18.8337C109.74 18.5884 109.75 18.3964 109.761 18.2577C109.59 18.2684 109.388 18.279 109.153 18.2897C108.918 18.2897 108.726 18.295 108.577 18.3057V17.2497H112.001V18.1297C111.713 18.1404 111.484 18.1937 111.313 18.2897C111.153 18.375 111.041 18.5297 110.977 18.7537C110.913 18.9777 110.881 19.2977 110.881 19.7137L110.865 28.6417H109.713ZM118.541 28.7057C117.41 28.7057 116.44 28.4657 115.629 27.9857C114.818 27.495 114.194 26.823 113.757 25.9697C113.32 25.1057 113.101 24.1297 113.101 23.0417C113.101 22.3057 113.213 21.5804 113.437 20.8657C113.672 20.1404 114.018 19.4897 114.477 18.9137C114.936 18.327 115.512 17.863 116.205 17.5217C116.909 17.1697 117.725 16.9937 118.653 16.9937C118.973 16.9937 119.32 17.0257 119.693 17.0897C120.066 17.1537 120.434 17.2497 120.797 17.3777C121.17 17.495 121.501 17.639 121.789 17.8097L121.725 17.1057H122.845V20.8177H121.965C121.88 20.1884 121.693 19.6657 121.405 19.2497C121.117 18.8337 120.749 18.519 120.301 18.3057C119.864 18.0817 119.373 17.9697 118.829 17.9697C118.274 17.9697 117.773 18.0977 117.325 18.3537C116.888 18.6097 116.514 18.9564 116.205 19.3937C115.906 19.831 115.677 20.3324 115.517 20.8977C115.357 21.463 115.277 22.0657 115.277 22.7057C115.277 23.6444 115.421 24.487 115.709 25.2337C116.008 25.9697 116.429 26.551 116.973 26.9777C117.517 27.3937 118.173 27.6017 118.941 27.6017C119.176 27.6017 119.437 27.5857 119.725 27.5537C120.013 27.511 120.301 27.447 120.589 27.3617C120.877 27.2764 121.133 27.175 121.357 27.0577V25.4097C121.357 25.1324 121.362 24.8604 121.373 24.5937C121.384 24.327 121.394 24.1084 121.405 23.9377C121.224 23.9484 121.016 23.959 120.781 23.9697C120.546 23.9697 120.36 23.975 120.221 23.9857V22.9297H124.269V23.8097C124.045 23.8204 123.864 23.863 123.725 23.9377C123.586 24.0017 123.474 24.103 123.389 24.2417C123.304 24.3697 123.245 24.5297 123.213 24.7217C123.181 24.9137 123.165 25.1324 123.165 25.3777V27.8897H122.765C122.509 27.8897 122.226 27.9324 121.917 28.0177C121.608 28.0924 121.272 28.1884 120.909 28.3057C120.578 28.4124 120.21 28.503 119.805 28.5777C119.4 28.663 118.978 28.7057 118.541 28.7057ZM129.59 28.4497V27.5697C129.888 27.559 130.118 27.511 130.278 27.4257C130.438 27.3297 130.55 27.1697 130.614 26.9457C130.678 26.711 130.71 26.391 130.71 25.9857V19.6017C130.71 19.335 130.715 19.079 130.726 18.8337C130.747 18.5884 130.763 18.3964 130.774 18.2577C130.592 18.2684 130.384 18.279 130.15 18.2897C129.915 18.2897 129.728 18.295 129.59 18.3057V17.2497H133.846V18.1297C133.558 18.1404 133.328 18.1937 133.158 18.2897C132.998 18.375 132.886 18.5297 132.822 18.7537C132.758 18.9777 132.726 19.2977 132.726 19.7137V22.2097H133.894L135.382 19.7617C135.542 19.4737 135.723 19.1804 135.926 18.8817C136.128 18.583 136.315 18.3697 136.486 18.2417C136.315 18.2524 136.139 18.263 135.958 18.2737C135.776 18.2737 135.616 18.279 135.478 18.2897V17.2497H139.238V18.1297C138.939 18.151 138.64 18.2044 138.342 18.2897C138.043 18.375 137.744 18.5457 137.446 18.8017C137.147 19.047 136.838 19.4257 136.518 19.9377L134.966 22.4177C135.211 22.567 135.419 22.7324 135.59 22.9137C135.771 23.095 135.936 23.287 136.086 23.4897L137.782 25.8417C138.059 26.215 138.315 26.5297 138.55 26.7857C138.795 27.0417 139.03 27.2337 139.254 27.3617C139.488 27.4897 139.723 27.559 139.958 27.5697V28.4497H137.67C137.574 28.439 137.43 28.3484 137.238 28.1777C137.056 28.007 136.859 27.799 136.646 27.5537C136.443 27.2977 136.256 27.0577 136.086 26.8337L134.39 24.4337C134.23 24.2097 134.059 23.991 133.878 23.7777C133.696 23.5537 133.526 23.383 133.366 23.2657L132.726 23.2817V26.0657C132.726 26.3537 132.72 26.6204 132.71 26.8657C132.699 27.111 132.683 27.303 132.662 27.4417C132.843 27.431 133.051 27.4204 133.286 27.4097C133.52 27.399 133.707 27.3937 133.846 27.3937V28.4497H129.59ZM144.824 16.4017L144.328 15.7137L146.184 13.8257C146.355 13.6657 146.526 13.5644 146.696 13.5217C146.878 13.4684 147.043 13.463 147.192 13.5057C147.352 13.5484 147.48 13.639 147.576 13.7777C147.672 13.9057 147.715 14.055 147.704 14.2257C147.704 14.3857 147.651 14.5457 147.544 14.7057C147.448 14.8657 147.304 15.0044 147.112 15.1217L144.824 16.4017ZM143.304 28.4497V27.5697C143.603 27.559 143.832 27.5057 143.992 27.4097C144.152 27.3137 144.264 27.1537 144.328 26.9297C144.392 26.7057 144.424 26.391 144.424 25.9857V24.4497L141.544 19.8737C141.352 19.575 141.192 19.2764 141.064 18.9777C140.936 18.679 140.862 18.439 140.84 18.2577C140.67 18.2684 140.52 18.279 140.392 18.2897C140.264 18.2897 140.131 18.295 139.992 18.3057V17.2497H144.52V18.1297C144.147 18.119 143.859 18.167 143.656 18.2737C143.464 18.3804 143.358 18.5404 143.336 18.7537C143.326 18.9564 143.416 19.2177 143.608 19.5377L144.84 21.5377C144.904 21.6444 144.99 21.7884 145.096 21.9697C145.203 22.1404 145.31 22.327 145.416 22.5297C145.534 22.7217 145.635 22.8977 145.72 23.0577H145.736C145.811 22.8977 145.907 22.695 146.024 22.4497C146.152 22.2044 146.302 21.9164 146.472 21.5857L147.48 19.6337C147.534 19.5164 147.603 19.3724 147.688 19.2017C147.784 19.031 147.886 18.8604 147.992 18.6897C148.099 18.5084 148.2 18.359 148.296 18.2417C148.115 18.2524 147.896 18.263 147.64 18.2737C147.395 18.2844 147.198 18.295 147.048 18.3057V17.2497H150.504V18.1297C150.078 18.1724 149.72 18.3324 149.432 18.6097C149.144 18.887 148.835 19.335 148.504 19.9537C148.152 20.6257 147.8 21.2924 147.448 21.9537C147.107 22.6044 146.771 23.2497 146.44 23.8897C146.44 24.0604 146.44 24.247 146.44 24.4497C146.44 24.6524 146.44 24.8604 146.44 25.0737C146.44 25.287 146.44 25.4844 146.44 25.6657C146.44 25.8364 146.44 25.9697 146.44 26.0657C146.44 26.3537 146.435 26.6204 146.424 26.8657C146.414 27.111 146.398 27.303 146.376 27.4417C146.568 27.431 146.792 27.4204 147.048 27.4097C147.315 27.399 147.523 27.3937 147.672 27.3937V28.4497H143.304ZM164.119 28.6417L158.567 21.4257C158.45 21.255 158.322 21.0844 158.183 20.9137C158.055 20.7324 157.927 20.551 157.799 20.3697H157.783L157.815 25.9537C157.815 26.2417 157.81 26.519 157.799 26.7857C157.799 27.0524 157.789 27.271 157.767 27.4417C157.949 27.431 158.157 27.4204 158.391 27.4097C158.626 27.399 158.813 27.3937 158.951 27.3937V28.4497H155.543V27.5697C155.821 27.559 156.034 27.5164 156.183 27.4417C156.343 27.3564 156.461 27.2177 156.535 27.0257C156.61 26.823 156.647 26.5564 156.647 26.2257L156.631 19.5697C156.631 19.3137 156.637 19.0684 156.647 18.8337C156.658 18.599 156.669 18.407 156.679 18.2577C156.509 18.2684 156.306 18.279 156.071 18.2897C155.837 18.2897 155.65 18.295 155.511 18.3057V17.2497H157.815L163.079 24.0497C163.303 24.3377 163.495 24.5937 163.655 24.8177C163.826 25.0417 163.975 25.2444 164.103 25.4257H164.119V19.6017C164.119 19.335 164.125 19.079 164.135 18.8337C164.146 18.5884 164.157 18.3964 164.167 18.2577C163.997 18.2684 163.794 18.279 163.559 18.2897C163.325 18.2897 163.133 18.295 162.983 18.3057V17.2497H166.407V18.1297C166.119 18.1404 165.89 18.1937 165.719 18.2897C165.559 18.375 165.447 18.5297 165.383 18.7537C165.319 18.9777 165.287 19.2977 165.287 19.7137L165.271 28.6417H164.119ZM173.232 31.4737C172.966 31.4737 172.747 31.3777 172.576 31.1857C172.406 30.9937 172.32 30.7644 172.32 30.4977C172.32 30.231 172.411 30.0017 172.592 29.8097C172.774 29.6177 172.987 29.5217 173.232 29.5217C173.478 29.5217 173.686 29.6177 173.856 29.8097C174.027 30.0017 174.112 30.231 174.112 30.4977C174.112 30.7644 174.027 30.9937 173.856 31.1857C173.696 31.3777 173.488 31.4737 173.232 31.4737ZM173.216 28.7057C172.203 28.7057 171.339 28.535 170.624 28.1937C169.91 27.8524 169.328 27.399 168.88 26.8337C168.443 26.2577 168.123 25.623 167.92 24.9297C167.718 24.2364 167.616 23.543 167.616 22.8497C167.616 22.1777 167.728 21.5004 167.952 20.8177C168.176 20.1244 168.518 19.4897 168.976 18.9137C169.446 18.3377 170.032 17.8737 170.736 17.5217C171.44 17.1697 172.267 16.9937 173.216 16.9937C174.187 16.9937 175.024 17.1697 175.728 17.5217C176.443 17.8737 177.024 18.343 177.472 18.9297C177.931 19.5057 178.267 20.135 178.48 20.8177C178.704 21.5004 178.816 22.1777 178.816 22.8497C178.816 23.511 178.704 24.183 178.48 24.8657C178.256 25.5484 177.91 26.183 177.44 26.7697C176.982 27.3457 176.4 27.815 175.696 28.1777C174.992 28.5297 174.166 28.7057 173.216 28.7057ZM173.344 27.7137C173.942 27.7137 174.443 27.575 174.848 27.2977C175.264 27.0204 175.6 26.6577 175.856 26.2097C176.112 25.7617 176.299 25.271 176.416 24.7377C176.544 24.1937 176.608 23.6604 176.608 23.1377C176.608 22.423 176.534 21.7564 176.384 21.1377C176.235 20.5084 176.011 19.959 175.712 19.4897C175.424 19.0204 175.056 18.6524 174.608 18.3857C174.16 18.1084 173.643 17.975 173.056 17.9857C172.47 17.9964 171.968 18.1457 171.552 18.4337C171.147 18.711 170.811 19.079 170.544 19.5377C170.288 19.9857 170.102 20.4817 169.984 21.0257C169.867 21.5697 169.808 22.103 169.808 22.6257C169.808 23.159 169.872 23.719 170 24.3057C170.128 24.8924 170.331 25.447 170.608 25.9697C170.886 26.4924 171.248 26.9137 171.696 27.2337C172.155 27.5537 172.704 27.7137 173.344 27.7137ZM175.344 16.1457L173.184 14.7697L170.976 16.1137L170.56 15.4897L173.136 13.1217H173.36L175.808 15.4737L175.344 16.1457ZM184.518 18.1297C184.23 18.1404 184 18.1937 183.83 18.2897C183.67 18.375 183.558 18.5297 183.494 18.7537C183.43 18.9777 183.398 19.2977 183.398 19.7137V26.0657C183.398 26.3537 183.392 26.6204 183.382 26.8657C183.371 27.111 183.355 27.303 183.334 27.4417C183.515 27.431 183.723 27.4204 183.958 27.4097C184.192 27.399 184.379 27.3937 184.518 27.3937V28.4497H180.262V27.5697C180.56 27.559 180.79 27.511 180.95 27.4257C181.11 27.3297 181.222 27.1697 181.286 26.9457C181.35 26.711 181.382 26.391 181.382 25.9857V19.6017C181.382 19.335 181.387 19.079 181.398 18.8337C181.419 18.5884 181.435 18.3964 181.446 18.2577C181.264 18.2684 181.056 18.279 180.822 18.2897C180.587 18.2897 180.4 18.295 180.262 18.3057V17.2497H184.518V18.1297ZM190.387 27.5697C190.685 27.559 190.915 27.511 191.075 27.4257C191.235 27.3297 191.347 27.1697 191.411 26.9457C191.475 26.711 191.507 26.391 191.507 25.9857V19.6017C191.507 19.335 191.512 19.079 191.523 18.8337C191.544 18.5884 191.56 18.3964 191.571 18.2577C191.389 18.2684 191.181 18.279 190.947 18.2897C190.712 18.2897 190.525 18.295 190.387 18.3057V17.2497L194.739 17.2337C195.763 17.2337 196.664 17.3777 197.443 17.6657C198.232 17.943 198.888 18.3377 199.411 18.8497C199.933 19.3617 200.328 19.9537 200.595 20.6257C200.872 21.2977 201.011 22.0177 201.011 22.7857C201.011 23.4577 200.888 24.1297 200.643 24.8017C200.408 25.4737 200.04 26.087 199.539 26.6417C199.048 27.1857 198.408 27.623 197.619 27.9537C196.84 28.2844 195.912 28.4497 194.835 28.4497H190.387V27.5697ZM193.523 26.0657C193.523 26.3537 193.517 26.6204 193.507 26.8657C193.496 27.111 193.48 27.303 193.459 27.4417C193.629 27.4417 193.816 27.447 194.019 27.4577C194.221 27.4577 194.419 27.463 194.611 27.4737C194.803 27.4737 194.947 27.4737 195.043 27.4737C195.661 27.4737 196.205 27.351 196.675 27.1057C197.144 26.8604 197.533 26.5297 197.843 26.1137C198.163 25.6977 198.403 25.223 198.563 24.6897C198.723 24.1457 198.803 23.575 198.803 22.9777C198.803 21.9217 198.637 21.0417 198.307 20.3377C197.987 19.623 197.523 19.0844 196.915 18.7217C196.307 18.3484 195.555 18.1564 194.659 18.1457C194.36 18.135 194.125 18.1777 193.955 18.2737C193.784 18.3697 193.667 18.5297 193.603 18.7537C193.549 18.9777 193.523 19.2924 193.523 19.6977V26.0657ZM206.212 18.1297C205.934 18.1404 205.71 18.1884 205.54 18.2737C205.38 18.359 205.262 18.4977 205.188 18.6897C205.124 18.871 205.092 19.1324 205.092 19.4737V23.7617C205.092 24.4017 205.15 24.9617 205.268 25.4417C205.396 25.911 205.577 26.3057 205.812 26.6257C206.046 26.9457 206.334 27.1857 206.676 27.3457C207.028 27.5057 207.433 27.5857 207.892 27.5857C208.532 27.607 209.07 27.4737 209.508 27.1857C209.956 26.8977 210.292 26.4764 210.516 25.9217C210.74 25.367 210.852 24.6897 210.852 23.8897L210.868 19.6017C210.868 19.335 210.873 19.079 210.884 18.8337C210.894 18.5884 210.91 18.3964 210.932 18.2577C210.75 18.2684 210.542 18.279 210.308 18.2897C210.073 18.2897 209.886 18.295 209.748 18.3057V17.2497H213.204V18.1297C212.916 18.1404 212.686 18.1937 212.516 18.2897C212.356 18.375 212.244 18.5297 212.18 18.7537C212.116 18.9777 212.084 19.2977 212.084 19.7137L212.068 23.6177C212.068 24.4604 211.966 25.2017 211.764 25.8417C211.572 26.471 211.284 26.999 210.9 27.4257C210.516 27.8524 210.052 28.1724 209.508 28.3857C208.964 28.599 208.345 28.7057 207.652 28.7057C206.766 28.7057 206.025 28.583 205.428 28.3377C204.841 28.0924 204.372 27.7404 204.02 27.2817C203.678 26.8124 203.433 26.263 203.284 25.6337C203.145 24.9937 203.076 24.279 203.076 23.4897V19.8257C203.076 19.5484 203.081 19.2604 203.092 18.9617C203.113 18.6524 203.129 18.4177 203.14 18.2577C202.958 18.2684 202.75 18.279 202.516 18.2897C202.281 18.2897 202.094 18.295 201.956 18.3057V17.2497H206.212V18.1297ZM223.041 28.6417L217.489 21.4257C217.372 21.255 217.244 21.0844 217.105 20.9137C216.977 20.7324 216.849 20.551 216.721 20.3697H216.705L216.737 25.9537C216.737 26.2417 216.732 26.519 216.721 26.7857C216.721 27.0524 216.711 27.271 216.689 27.4417C216.871 27.431 217.079 27.4204 217.313 27.4097C217.548 27.399 217.735 27.3937 217.873 27.3937V28.4497H214.465V27.5697C214.743 27.559 214.956 27.5164 215.105 27.4417C215.265 27.3564 215.383 27.2177 215.457 27.0257C215.532 26.823 215.569 26.5564 215.569 26.2257L215.553 19.5697C215.553 19.3137 215.559 19.0684 215.569 18.8337C215.58 18.599 215.591 18.407 215.601 18.2577C215.431 18.2684 215.228 18.279 214.993 18.2897C214.759 18.2897 214.572 18.295 214.433 18.3057V17.2497H216.737L222.001 24.0497C222.225 24.3377 222.417 24.5937 222.577 24.8177C222.748 25.0417 222.897 25.2444 223.025 25.4257H223.041V19.6017C223.041 19.335 223.047 19.079 223.057 18.8337C223.068 18.5884 223.079 18.3964 223.089 18.2577C222.919 18.2684 222.716 18.279 222.481 18.2897C222.247 18.2897 222.055 18.295 221.905 18.3057V17.2497H225.329V18.1297C225.041 18.1404 224.812 18.1937 224.641 18.2897C224.481 18.375 224.369 18.5297 224.305 18.7537C224.241 18.9777 224.209 19.2977 224.209 19.7137L224.193 28.6417H223.041ZM231.869 28.7057C230.738 28.7057 229.768 28.4657 228.957 27.9857C228.146 27.495 227.522 26.823 227.085 25.9697C226.648 25.1057 226.429 24.1297 226.429 23.0417C226.429 22.3057 226.541 21.5804 226.765 20.8657C227 20.1404 227.346 19.4897 227.805 18.9137C228.264 18.327 228.84 17.863 229.533 17.5217C230.237 17.1697 231.053 16.9937 231.981 16.9937C232.301 16.9937 232.648 17.0257 233.021 17.0897C233.394 17.1537 233.762 17.2497 234.125 17.3777C234.498 17.495 234.829 17.639 235.117 17.8097L235.053 17.1057H236.173V20.8177H235.293C235.208 20.1884 235.021 19.6657 234.733 19.2497C234.445 18.8337 234.077 18.519 233.629 18.3057C233.192 18.0817 232.701 17.9697 232.157 17.9697C231.602 17.9697 231.101 18.0977 230.653 18.3537C230.216 18.6097 229.842 18.9564 229.533 19.3937C229.234 19.831 229.005 20.3324 228.845 20.8977C228.685 21.463 228.605 22.0657 228.605 22.7057C228.605 23.6444 228.749 24.487 229.037 25.2337C229.336 25.9697 229.757 26.551 230.301 26.9777C230.845 27.3937 231.501 27.6017 232.269 27.6017C232.504 27.6017 232.765 27.5857 233.053 27.5537C233.341 27.511 233.629 27.447 233.917 27.3617C234.205 27.2764 234.461 27.175 234.685 27.0577V25.4097C234.685 25.1324 234.69 24.8604 234.701 24.5937C234.712 24.327 234.722 24.1084 234.733 23.9377C234.552 23.9484 234.344 23.959 234.109 23.9697C233.874 23.9697 233.688 23.975 233.549 23.9857V22.9297H237.597V23.8097C237.373 23.8204 237.192 23.863 237.053 23.9377C236.914 24.0017 236.802 24.103 236.717 24.2417C236.632 24.3697 236.573 24.5297 236.541 24.7217C236.509 24.9137 236.493 25.1324 236.493 25.3777V27.8897H236.093C235.837 27.8897 235.554 27.9324 235.245 28.0177C234.936 28.0924 234.6 28.1884 234.237 28.3057C233.906 28.4124 233.538 28.503 233.133 28.5777C232.728 28.663 232.306 28.7057 231.869 28.7057Z" fill="black"/>
</svg>
